<svg xmlns="http://www.w3.org/2000/svg" width="27.105" height="31.813" viewBox="0 0 27.105 31.813">
  <g id="Сгруппировать_69" data-name="Сгруппировать 69" transform="translate(-5678.061 -51.942)">
    <g id="Сгруппировать_40" data-name="Сгруппировать 40">
      <g id="Сгруппировать_39" data-name="Сгруппировать 39">
        <g id="Сгруппировать_38" data-name="Сгруппировать 38">
          <g id="Сгруппировать_37" data-name="Сгруппировать 37">
            <path id="Контур_251" data-name="Контур 251" d="M5691.613,81.417A11.214,11.214,0,1,1,5702.827,70.2,11.227,11.227,0,0,1,5691.613,81.417Zm0-21.431A10.216,10.216,0,1,0,5701.83,70.2,10.228,10.228,0,0,0,5691.613,59.986Z" fill="#fff"/>
          </g>
        </g>
      </g>
    </g>
    <g id="Сгруппировать_44" data-name="Сгруппировать 44">
      <g id="Сгруппировать_43" data-name="Сгруппировать 43">
        <g id="Сгруппировать_42" data-name="Сгруппировать 42">
          <g id="Сгруппировать_41" data-name="Сгруппировать 41">
            <path id="Контур_252" data-name="Контур 252" d="M5691.613,83.755A13.552,13.552,0,1,1,5705.166,70.2,13.567,13.567,0,0,1,5691.613,83.755Zm0-26.107A12.555,12.555,0,1,0,5704.168,70.2,12.569,12.569,0,0,0,5691.613,57.648Z" fill="#fff"/>
          </g>
        </g>
      </g>
    </g>
    <g id="Сгруппировать_48" data-name="Сгруппировать 48">
      <g id="Сгруппировать_47" data-name="Сгруппировать 47">
        <g id="Сгруппировать_46" data-name="Сгруппировать 46">
          <g id="Сгруппировать_45" data-name="Сгруппировать 45">
            <path id="Контур_253" data-name="Контур 253" d="M5694.59,55.441h-5.954a.5.5,0,0,1-.5-.5v-2.5a.5.5,0,0,1,.5-.5h5.954a.5.5,0,0,1,.5.5v2.5A.5.5,0,0,1,5694.59,55.441Zm-5.455-1h4.957v-1.5h-4.957Z" fill="#fff"/>
          </g>
        </g>
      </g>
    </g>
    <g id="Сгруппировать_52" data-name="Сгруппировать 52">
      <g id="Сгруппировать_51" data-name="Сгруппировать 51">
        <g id="Сгруппировать_50" data-name="Сгруппировать 50">
          <g id="Сгруппировать_49" data-name="Сгруппировать 49">
            <path id="Контур_254" data-name="Контур 254" d="M5692.871,57.648h-2.516a.5.5,0,0,1-.5-.5V54.942a.5.5,0,0,1,.5-.5h2.516a.5.5,0,0,1,.5.5v2.207A.5.5,0,0,1,5692.871,57.648Zm-2.017-1h1.519V55.441h-1.519Z" fill="#fff"/>
          </g>
        </g>
      </g>
    </g>
    <g id="Сгруппировать_56" data-name="Сгруппировать 56">
      <g id="Сгруппировать_55" data-name="Сгруппировать 55">
        <g id="Сгруппировать_54" data-name="Сгруппировать 54">
          <g id="Сгруппировать_53" data-name="Сгруппировать 53">
            <path id="Контур_255" data-name="Контур 255" d="M5682.209,61.648a.494.494,0,0,1-.352-.146l-2-2a.5.5,0,1,1,.705-.7l2,2a.5.5,0,0,1-.353.851Z" fill="#fff"/>
          </g>
        </g>
      </g>
    </g>
    <g id="Сгруппировать_60" data-name="Сгруппировать 60">
      <g id="Сгруппировать_59" data-name="Сгруппировать 59">
        <g id="Сгруппировать_58" data-name="Сгруппировать 58">
          <g id="Сгруппировать_57" data-name="Сгруппировать 57">
            <path id="Контур_256" data-name="Контур 256" d="M5679.213,60.651a.5.5,0,0,1-.353-.851l2-2a.5.5,0,0,1,.706.705l-2,2A.5.5,0,0,1,5679.213,60.651Z" fill="#fff"/>
          </g>
        </g>
      </g>
    </g>
    <g id="Сгруппировать_64" data-name="Сгруппировать 64">
      <g id="Сгруппировать_63" data-name="Сгруппировать 63">
        <g id="Сгруппировать_62" data-name="Сгруппировать 62">
          <g id="Сгруппировать_61" data-name="Сгруппировать 61">
            <path id="Контур_257" data-name="Контур 257" d="M5701.031,61.648a.5.5,0,0,1-.353-.851l2-2a.5.5,0,0,1,.705.7l-2,2A.492.492,0,0,1,5701.031,61.648Z" fill="#fff"/>
          </g>
        </g>
      </g>
    </g>
    <g id="Сгруппировать_68" data-name="Сгруппировать 68">
      <g id="Сгруппировать_67" data-name="Сгруппировать 67">
        <g id="Сгруппировать_66" data-name="Сгруппировать 66">
          <g id="Сгруппировать_65" data-name="Сгруппировать 65">
            <path id="Контур_258" data-name="Контур 258" d="M5704.027,60.651a.5.5,0,0,1-.353-.146l-2-2a.5.5,0,0,1,.706-.705l2,2a.5.5,0,0,1-.352.851Z" fill="#fff"/>
          </g>
        </g>
      </g>
    </g>
  </g>
</svg>
