<!-- svg спрайты -->
<svg xmlns="http://www.w3.org/2000/svg" display="none">

	<!-- logo -->
	<symbol id="logo" viewBox="0 0 318.538 61.044">
  <g id="Сгруппировать_112" data-name="Сгруппировать 112" transform="translate(-4718.567 -48.392)">
    <path id="Контур_430" data-name="Контур 430" d="M4831.572,71.813a18.083,18.083,0,0,0-.334-3.422c-1.2-10.063-5.913-14.62-16.346-14.62h-30.416V103.4h16.135V66.853h9.853a4.967,4.967,0,0,1,4.966,4.966l.007.009V103.4h16.135V74.375c0-.633-.02-1.23-.038-1.832C4831.545,72.3,4831.572,72.06,4831.572,71.813Z" fill="#464545"/>
    <path id="Контур_431" data-name="Контур 431" d="M4835.629,85.356a18.123,18.123,0,0,0,.334,3.422c1.2,10.063,5.913,14.62,16.346,14.62h30.416V53.771H4866.59V90.316h-9.853a4.967,4.967,0,0,1-4.966-4.966l-.007-.009V53.771h-16.135V82.794c0,.632.02,1.23.038,1.832C4835.656,84.87,4835.629,85.109,4835.629,85.356Z" fill="#464545"/>
    <g id="Сгруппировать_110" data-name="Сгруппировать 110">
      <ellipse id="Эллипс_6" data-name="Эллипс 6" cx="29.378" cy="29.2" rx="29.378" ry="29.2" transform="translate(4719.89 49.715)" fill="#fff" stroke="#d9000d" stroke-miterlimit="10" stroke-width="2.645"/>
      <ellipse id="Эллипс_7" data-name="Эллипс 7" cx="19.585" cy="19.466" rx="19.585" ry="19.466" transform="translate(4729.683 59.448)" fill="#fff" stroke="#d9000d" stroke-miterlimit="10" stroke-width="2.645"/>
    </g>
    <path id="Контур_432" data-name="Контур 432" d="M4775.84,86.038V71.943h-27.415V86.038Z" fill="#d9000d"/>
    <path id="Контур_433" data-name="Контур 433" d="M4749.268,49.715v9.733a19.467,19.467,0,1,1,0,38.933v9.733a29.2,29.2,0,1,0,0-58.4Z" fill="#d9000d" stroke="#d9000d" stroke-miterlimit="10" stroke-width="2.645"/>
    <path id="Контур_434" data-name="Контур 434" d="M4900.422,74.515h-1.331a2.819,2.819,0,0,1-2.819-2.819l0,0V53.771h-9.158V70.245c0,.36.011.7.021,1.04-.006.139-.021.275-.021.415a10.3,10.3,0,0,0,.189,1.942c.683,5.712,3.357,8.3,9.278,8.3h20.718v-7.42h-16.873Z" fill="#464545"/>
    <path id="Контур_435" data-name="Контур 435" d="M4904.685,53.771v17.8h9.159v-17.8Z" fill="#464545"/>
    <g id="Сгруппировать_111" data-name="Сгруппировать 111">
      <path id="Контур_436" data-name="Контур 436" d="M4921.256,81.941h25.668V74.521h-25.668Z" fill="#464545"/>
      <path id="Контур_437" data-name="Контур 437" d="M4946.924,61.192V53.771h-25.668v17.8h25.668V64.146h-16.509V61.192Z" fill="#464545"/>
    </g>
    <path id="Контур_438" data-name="Контур 438" d="M4999.625,64.091h-9.159v17.85h9.159Z" fill="#464545"/>
    <path id="Контур_439" data-name="Контур 439" d="M4982.212,53.771v7.421h25.668V53.771Z" fill="#464545"/>
    <path id="Контур_440" data-name="Контур 440" d="M5020.642,64.091h-9.159v17.85h9.159Z" fill="#464545"/>
    <path id="Контур_441" data-name="Контур 441" d="M4950.655,53.771v28.17h9.159V53.771Z" fill="#464545"/>
    <path id="Контур_442" data-name="Контур 442" d="M4969.465,53.771v28.17h9.159V53.771Z" fill="#464545"/>
    <rect id="Прямоугольник_25" data-name="Прямоугольник 25" width="15.42" height="7.421" transform="translate(4962.295 64.146)" fill="#464545"/>
    <path id="Контур_443" data-name="Контур 443" d="M5028.23,53.771c-.157,0-.309.015-.463.023-.164-.008-.327-.023-.493-.023h-15.791V61.2h16.837c.026,0,.053,0,.08,0s.05,0,.075,0a1.445,1.445,0,1,1,0,2.891c-.025,0-.05,0-.075,0s-.054,0-.08,0h-16.837v7.425h15.791c.166,0,.329-.015.493-.024.154.008.306.024.463.024a8.871,8.871,0,0,0,0-17.741Z" fill="#464545"/>
    <rect id="Прямоугольник_26" data-name="Прямоугольник 26" width="149.995" height="17.358" transform="translate(4887.11 86.04)" fill="#d0000e"/>
    <text id="рекламы" transform="translate(4901.221 98.532)" fill="#fff" font-size="14.418" font-family="MicrosoftYaHeiUI-Bold, Microsoft YaHei UI" font-weight="700" letter-spacing="0.6em"><tspan x="0" y="0">рекламы</tspan></text>
  </g>
	</symbol>

		<!-- audio -->
	<symbol id="audio" viewBox="0 0 25.952 32.003">
  <g id="Сгруппировать_24" data-name="Сгруппировать 24" transform="translate(-5251.39 -52.739)">
    <g id="Сгруппировать_7" data-name="Сгруппировать 7">
      <g id="Сгруппировать_6" data-name="Сгруппировать 6">
        <g id="Сгруппировать_5" data-name="Сгруппировать 5">
          <g id="Сгруппировать_4" data-name="Сгруппировать 4">
            <path id="Контур_81" data-name="Контур 81" d="M5255.745,84.742a4.354,4.354,0,1,1,4.354-4.355A4.36,4.36,0,0,1,5255.745,84.742Zm0-7.712a3.357,3.357,0,1,0,3.357,3.357A3.361,3.361,0,0,0,5255.745,77.03Z" fill="#fff"/>
          </g>
        </g>
      </g>
    </g>
    <g id="Сгруппировать_11" data-name="Сгруппировать 11">
      <g id="Сгруппировать_10" data-name="Сгруппировать 10">
        <g id="Сгруппировать_9" data-name="Сгруппировать 9">
          <g id="Сгруппировать_8" data-name="Сгруппировать 8">
            <path id="Контур_82" data-name="Контур 82" d="M5272.988,82.171a4.354,4.354,0,1,1,4.354-4.354A4.36,4.36,0,0,1,5272.988,82.171Zm0-7.711a3.357,3.357,0,1,0,3.357,3.357A3.361,3.361,0,0,0,5272.988,74.46Z" fill="#fff"/>
          </g>
        </g>
      </g>
    </g>
    <g id="Сгруппировать_15" data-name="Сгруппировать 15">
      <g id="Сгруппировать_14" data-name="Сгруппировать 14">
        <g id="Сгруппировать_13" data-name="Сгруппировать 13">
          <g id="Сгруппировать_12" data-name="Сгруппировать 12">
            <path id="Контур_83" data-name="Контур 83" d="M5259.6,81.037a.5.5,0,0,1-.5-.5v-17.1a.5.5,0,0,1,1,0v17.1A.5.5,0,0,1,5259.6,81.037Z" fill="#fff"/>
          </g>
        </g>
      </g>
    </g>
    <g id="Сгруппировать_19" data-name="Сгруппировать 19">
      <g id="Сгруппировать_18" data-name="Сгруппировать 18">
        <g id="Сгруппировать_17" data-name="Сгруппировать 17">
          <g id="Сгруппировать_16" data-name="Сгруппировать 16">
            <path id="Контур_84" data-name="Контур 84" d="M5276.843,78.164a.5.5,0,0,1-.5-.5V59.416a.5.5,0,1,1,1,0V77.665A.5.5,0,0,1,5276.843,78.164Z" fill="#fff"/>
          </g>
        </g>
      </g>
    </g>
    <g id="Сгруппировать_23" data-name="Сгруппировать 23">
      <g id="Сгруппировать_22" data-name="Сгруппировать 22">
        <g id="Сгруппировать_21" data-name="Сгруппировать 21">
          <g id="Сгруппировать_20" data-name="Сгруппировать 20">
            <path id="Контур_85" data-name="Контур 85" d="M5259.6,63.938a.5.5,0,0,1-.5-.5V57.261a.5.5,0,0,1,.385-.486l17.243-4.023a.5.5,0,0,1,.612.485v6.179a.5.5,0,0,1-.385.486l-17.243,4.023A.488.488,0,0,1,5259.6,63.938Zm.5-6.282v5.155l16.246-3.791V53.866Z" fill="#fff"/>
          </g>
        </g>
      </g>
    </g>
  </g>
		</symbol>

		<!-- announcers -->
		<symbol id="announcers" viewBox="0 0 32.09 31.994">
  <g id="Сгруппировать_34" data-name="Сгруппировать 34" transform="translate(-5462.825 -54.527)">
    <g id="Сгруппировать_29" data-name="Сгруппировать 29">
      <path id="Контур_166" data-name="Контур 166" d="M5489.9,77.587a.5.5,0,0,1-.5-.5V66.057a10.533,10.533,0,0,0-21.066,0V77.089a.5.5,0,0,1-1,0V66.057a11.53,11.53,0,0,1,23.06,0V77.089A.5.5,0,0,1,5489.9,77.587Z" fill="#fff"/>
    </g>
    <g id="Сгруппировать_30" data-name="Сгруппировать 30">
      <path id="Контур_167" data-name="Контур 167" d="M5467.839,77.587h-2.6a2.413,2.413,0,0,1-2.411-2.41V70.482a2.414,2.414,0,0,1,2.411-2.411h2.6a.5.5,0,0,1,.5.5v8.519A.5.5,0,0,1,5467.839,77.587Zm-2.6-8.518a1.414,1.414,0,0,0-1.413,1.413v4.695a1.415,1.415,0,0,0,1.413,1.413h2.1V69.069Z" fill="#fff"/>
    </g>
    <g id="Сгруппировать_31" data-name="Сгруппировать 31">
      <path id="Контур_168" data-name="Контур 168" d="M5492.5,77.587h-2.6a.5.5,0,0,1-.5-.5V68.57a.5.5,0,0,1,.5-.5h2.6a2.414,2.414,0,0,1,2.411,2.411v4.695A2.413,2.413,0,0,1,5492.5,77.587Zm-2.1-1h2.1a1.415,1.415,0,0,0,1.413-1.413V70.482a1.414,1.414,0,0,0-1.413-1.413h-2.1Z" fill="#fff"/>
    </g>
    <g id="Сгруппировать_32" data-name="Сгруппировать 32">
      <path id="Контур_169" data-name="Контур 169" d="M5477.244,86.521a2.161,2.161,0,1,1,2.161-2.161A2.163,2.163,0,0,1,5477.244,86.521Zm0-3.324a1.163,1.163,0,1,0,1.163,1.163A1.165,1.165,0,0,0,5477.244,83.2Z" fill="#fff"/>
    </g>
    <g id="Сгруппировать_33" data-name="Сгруппировать 33">
      <path id="Контур_170" data-name="Контур 170" d="M5475.582,84.859h-.472a7.779,7.779,0,0,1-7.77-7.77.5.5,0,1,1,1,0,6.78,6.78,0,0,0,6.773,6.772h.472a.5.5,0,0,1,0,1Z" fill="#fff"/>
    </g>
  </g>
</symbol>

		<!-- timing -->
		<symbol id="timing" viewBox="0 0 27.105 31.813">
  <g id="Сгруппировать_69" data-name="Сгруппировать 69" transform="translate(-5678.061 -51.942)">
    <g id="Сгруппировать_40" data-name="Сгруппировать 40">
      <g id="Сгруппировать_39" data-name="Сгруппировать 39">
        <g id="Сгруппировать_38" data-name="Сгруппировать 38">
          <g id="Сгруппировать_37" data-name="Сгруппировать 37">
            <path id="Контур_251" data-name="Контур 251" d="M5691.613,81.417A11.214,11.214,0,1,1,5702.827,70.2,11.227,11.227,0,0,1,5691.613,81.417Zm0-21.431A10.216,10.216,0,1,0,5701.83,70.2,10.228,10.228,0,0,0,5691.613,59.986Z" fill="#fff"/>
          </g>
        </g>
      </g>
    </g>
    <g id="Сгруппировать_44" data-name="Сгруппировать 44">
      <g id="Сгруппировать_43" data-name="Сгруппировать 43">
        <g id="Сгруппировать_42" data-name="Сгруппировать 42">
          <g id="Сгруппировать_41" data-name="Сгруппировать 41">
            <path id="Контур_252" data-name="Контур 252" d="M5691.613,83.755A13.552,13.552,0,1,1,5705.166,70.2,13.567,13.567,0,0,1,5691.613,83.755Zm0-26.107A12.555,12.555,0,1,0,5704.168,70.2,12.569,12.569,0,0,0,5691.613,57.648Z" fill="#fff"/>
          </g>
        </g>
      </g>
    </g>
    <g id="Сгруппировать_48" data-name="Сгруппировать 48">
      <g id="Сгруппировать_47" data-name="Сгруппировать 47">
        <g id="Сгруппировать_46" data-name="Сгруппировать 46">
          <g id="Сгруппировать_45" data-name="Сгруппировать 45">
            <path id="Контур_253" data-name="Контур 253" d="M5694.59,55.441h-5.954a.5.5,0,0,1-.5-.5v-2.5a.5.5,0,0,1,.5-.5h5.954a.5.5,0,0,1,.5.5v2.5A.5.5,0,0,1,5694.59,55.441Zm-5.455-1h4.957v-1.5h-4.957Z" fill="#fff"/>
          </g>
        </g>
      </g>
    </g>
    <g id="Сгруппировать_52" data-name="Сгруппировать 52">
      <g id="Сгруппировать_51" data-name="Сгруппировать 51">
        <g id="Сгруппировать_50" data-name="Сгруппировать 50">
          <g id="Сгруппировать_49" data-name="Сгруппировать 49">
            <path id="Контур_254" data-name="Контур 254" d="M5692.871,57.648h-2.516a.5.5,0,0,1-.5-.5V54.942a.5.5,0,0,1,.5-.5h2.516a.5.5,0,0,1,.5.5v2.207A.5.5,0,0,1,5692.871,57.648Zm-2.017-1h1.519V55.441h-1.519Z" fill="#fff"/>
          </g>
        </g>
      </g>
    </g>
    <g id="Сгруппировать_56" data-name="Сгруппировать 56">
      <g id="Сгруппировать_55" data-name="Сгруппировать 55">
        <g id="Сгруппировать_54" data-name="Сгруппировать 54">
          <g id="Сгруппировать_53" data-name="Сгруппировать 53">
            <path id="Контур_255" data-name="Контур 255" d="M5682.209,61.648a.494.494,0,0,1-.352-.146l-2-2a.5.5,0,1,1,.705-.7l2,2a.5.5,0,0,1-.353.851Z" fill="#fff"/>
          </g>
        </g>
      </g>
    </g>
    <g id="Сгруппировать_60" data-name="Сгруппировать 60">
      <g id="Сгруппировать_59" data-name="Сгруппировать 59">
        <g id="Сгруппировать_58" data-name="Сгруппировать 58">
          <g id="Сгруппировать_57" data-name="Сгруппировать 57">
            <path id="Контур_256" data-name="Контур 256" d="M5679.213,60.651a.5.5,0,0,1-.353-.851l2-2a.5.5,0,0,1,.706.705l-2,2A.5.5,0,0,1,5679.213,60.651Z" fill="#fff"/>
          </g>
        </g>
      </g>
    </g>
    <g id="Сгруппировать_64" data-name="Сгруппировать 64">
      <g id="Сгруппировать_63" data-name="Сгруппировать 63">
        <g id="Сгруппировать_62" data-name="Сгруппировать 62">
          <g id="Сгруппировать_61" data-name="Сгруппировать 61">
            <path id="Контур_257" data-name="Контур 257" d="M5701.031,61.648a.5.5,0,0,1-.353-.851l2-2a.5.5,0,0,1,.705.7l-2,2A.492.492,0,0,1,5701.031,61.648Z" fill="#fff"/>
          </g>
        </g>
      </g>
    </g>
    <g id="Сгруппировать_68" data-name="Сгруппировать 68">
      <g id="Сгруппировать_67" data-name="Сгруппировать 67">
        <g id="Сгруппировать_66" data-name="Сгруппировать 66">
          <g id="Сгруппировать_65" data-name="Сгруппировать 65">
            <path id="Контур_258" data-name="Контур 258" d="M5704.027,60.651a.5.5,0,0,1-.353-.146l-2-2a.5.5,0,0,1,.706-.705l2,2a.5.5,0,0,1-.352.851Z" fill="#fff"/>
          </g>
        </g>
      </g>
    </g>
  </g>
</symbol>

		<!-- price -->
		<symbol id="price" viewBox="0 0 29.819 25.72">
			<g id="Сгруппировать_92" data-name="Сгруппировать 92" transform="translate(-5890.828 -57.664)">
    <g id="Сгруппировать_82" data-name="Сгруппировать 82">
      <g id="Сгруппировать_79" data-name="Сгруппировать 79">
        <path id="Контур_340" data-name="Контур 340" d="M5917.151,83.384h-22.826a3.5,3.5,0,0,1-3.5-3.5V61.16a3.5,3.5,0,0,1,3.5-3.5h22.826a3.5,3.5,0,0,1,3.5,3.5V79.887A3.5,3.5,0,0,1,5917.151,83.384Zm-22.826-24.722a2.5,2.5,0,0,0-2.5,2.5V79.887a2.5,2.5,0,0,0,2.5,2.5h22.826a2.5,2.5,0,0,0,2.5-2.5V61.16a2.5,2.5,0,0,0-2.5-2.5Z" fill="#fff"/>
      </g>
      <g id="Сгруппировать_80" data-name="Сгруппировать 80">
        <path id="Контур_341" data-name="Контур 341" d="M5920.148,74.325h-6.8a3.687,3.687,0,0,1-3.683-3.683v-.236a3.687,3.687,0,0,1,3.683-3.683h6.8a.5.5,0,0,1,.5.5v6.606A.5.5,0,0,1,5920.148,74.325Zm-6.8-6.6a2.689,2.689,0,0,0-2.686,2.686v.236a2.689,2.689,0,0,0,2.686,2.686h6.3V67.72Z" fill="#fff"/>
      </g>
      <g id="Сгруппировать_81" data-name="Сгруппировать 81">
        <path id="Контур_342" data-name="Контур 342" d="M5913.685,72.34a1.816,1.816,0,1,1,1.815-1.816A1.818,1.818,0,0,1,5913.685,72.34Zm0-2.635a.819.819,0,1,0,.818.819A.82.82,0,0,0,5913.685,69.705Z" fill="#fff"/>
      </g>
    </g>
    <g id="Сгруппировать_91" data-name="Сгруппировать 91">
      <g id="Сгруппировать_86" data-name="Сгруппировать 86">
        <g id="Сгруппировать_83" data-name="Сгруппировать 83">
          <path id="Контур_343" data-name="Контур 343" d="M5892.159,61.529h-.832a.5.5,0,1,1,0-1h.832a.5.5,0,0,1,0,1Z" fill="#fff"/>
        </g>
        <g id="Сгруппировать_84" data-name="Сгруппировать 84">
          <path id="Контур_344" data-name="Контур 344" d="M5916.122,61.529h-1.6a.5.5,0,1,1,0-1h1.6a.5.5,0,0,1,0,1Zm-4.793,0h-1.6a.5.5,0,1,1,0-1h1.6a.5.5,0,1,1,0,1Zm-4.793,0h-1.6a.5.5,0,1,1,0-1h1.6a.5.5,0,1,1,0,1Zm-4.792,0h-1.6a.5.5,0,1,1,0-1h1.6a.5.5,0,0,1,0,1Zm-4.793,0h-1.6a.5.5,0,1,1,0-1h1.6a.5.5,0,1,1,0,1Z" fill="#fff"/>
        </g>
        <g id="Сгруппировать_85" data-name="Сгруппировать 85">
          <path id="Контур_345" data-name="Контур 345" d="M5920.148,61.529h-.831a.5.5,0,1,1,0-1h.831a.5.5,0,1,1,0,1Z" fill="#fff"/>
        </g>
      </g>
      <g id="Сгруппировать_90" data-name="Сгруппировать 90">
        <g id="Сгруппировать_87" data-name="Сгруппировать 87">
          <path id="Контур_346" data-name="Контур 346" d="M5892.159,80.516h-.832a.5.5,0,1,1,0-1h.832a.5.5,0,0,1,0,1Z" fill="#fff"/>
        </g>
        <g id="Сгруппировать_88" data-name="Сгруппировать 88">
          <path id="Контур_347" data-name="Контур 347" d="M5916.122,80.516h-1.6a.5.5,0,1,1,0-1h1.6a.5.5,0,0,1,0,1Zm-4.793,0h-1.6a.5.5,0,1,1,0-1h1.6a.5.5,0,1,1,0,1Zm-4.793,0h-1.6a.5.5,0,1,1,0-1h1.6a.5.5,0,1,1,0,1Zm-4.792,0h-1.6a.5.5,0,1,1,0-1h1.6a.5.5,0,0,1,0,1Zm-4.793,0h-1.6a.5.5,0,1,1,0-1h1.6a.5.5,0,1,1,0,1Z" fill="#fff"/>
        </g>
        <g id="Сгруппировать_89" data-name="Сгруппировать 89">
          <path id="Контур_348" data-name="Контур 348" d="M5920.148,80.516h-.831a.5.5,0,1,1,0-1h.831a.5.5,0,1,1,0,1Z" fill="#fff"/>
        </g>
      </g>
    </g>
  </g>
		</symbol>

		<!-- contacts -->
		<symbol id="contacts" viewBox="0 0 28.273 28.256">
			  <g id="Сгруппировать_100" data-name="Сгруппировать 100" transform="translate(-6098.924 -56.396)">
    <g id="Сгруппировать_99" data-name="Сгруппировать 99">
      <g id="Сгруппировать_98" data-name="Сгруппировать 98">
        <g id="Сгруппировать_97" data-name="Сгруппировать 97">
          <path id="Контур_429" data-name="Контур 429" d="M6120.391,84.652a13.7,13.7,0,0,1-1.851-.193,14.062,14.062,0,0,1-3.119-.958,25.747,25.747,0,0,1-4.11-2.251,30.681,30.681,0,0,1-4.875-4.109,32.348,32.348,0,0,1-3.4-3.868,27.984,27.984,0,0,1-2.176-3.427,18.834,18.834,0,0,1-1.245-2.879,15.338,15.338,0,0,1-.566-2.242,7.561,7.561,0,0,1-.122-1.534c.018-.322.028-.506.029-.552a.546.546,0,0,1,0-.069,3.278,3.278,0,0,1,.305-.968,2.652,2.652,0,0,1,.6-.833l3.822-3.822a1.76,1.76,0,0,1,1.277-.551,1.556,1.556,0,0,1,.964.319,2.436,2.436,0,0,1,.611.664.208.208,0,0,1,.02.035l3.091,5.861a1.891,1.891,0,0,1,.191,1.346,2.3,2.3,0,0,1-.627,1.173l-1.388,1.389-.007.02c-.005.015-.009.028-.012.038a5,5,0,0,0,.458,1.177,12.368,12.368,0,0,0,1.03,1.626,18.2,18.2,0,0,0,1.994,2.23,18.756,18.756,0,0,0,2.255,2.019,12.967,12.967,0,0,0,1.623,1.042,3.961,3.961,0,0,0,.91.374l.267.053.026-.008.019-.007,1.616-1.646.026-.024a2.265,2.265,0,0,1,1.543-.586,2.088,2.088,0,0,1,.952.2.508.508,0,0,1,.11.045l5.573,3.292a1.944,1.944,0,0,1,.958,1.284l.005.033a1.825,1.825,0,0,1-.545,1.572l-3.842,3.813a2.646,2.646,0,0,1-.814.586,3.325,3.325,0,0,1-.969.3.545.545,0,0,1-.07.005l-.124.012C6120.7,84.645,6120.563,84.652,6120.391,84.652Zm-20.437-21.965c0,.085-.013.271-.029.559a6.678,6.678,0,0,0,.111,1.322,14.373,14.373,0,0,0,.53,2.093,17.872,17.872,0,0,0,1.18,2.722,26.793,26.793,0,0,0,2.1,3.3,31.307,31.307,0,0,0,3.3,3.75,29.731,29.731,0,0,0,4.716,3.98,24.789,24.789,0,0,0,3.946,2.165,13.117,13.117,0,0,0,2.888.893,12.983,12.983,0,0,0,1.7.181c.135,0,.247,0,.331-.012s.125-.012.163-.014a2.312,2.312,0,0,0,.66-.213,1.7,1.7,0,0,0,.527-.376l3.858-3.831a.824.824,0,0,0,.263-.719.938.938,0,0,0-.492-.61l-5.494-3.245a.49.49,0,0,1-.1-.044,1.027,1.027,0,0,0-.523-.1,1.275,1.275,0,0,0-.87.325l-1.633,1.662a.939.939,0,0,1-.383.224.836.836,0,0,1-.447.06l-.36-.072a4.892,4.892,0,0,1-1.167-.463,13.617,13.617,0,0,1-1.757-1.125,19.667,19.667,0,0,1-2.373-2.119,19.182,19.182,0,0,1-2.1-2.351,13.268,13.268,0,0,1-1.111-1.758,5.738,5.738,0,0,1-.564-1.516.6.6,0,0,1-.008-.093,1.174,1.174,0,0,1,.069-.377.94.94,0,0,1,.222-.381l1.414-1.415a1.3,1.3,0,0,0,.356-.674.908.908,0,0,0-.091-.663l-3.087-5.855a1.467,1.467,0,0,0-.357-.384.571.571,0,0,0-.366-.119.778.778,0,0,0-.572.258l-3.84,3.84a1.725,1.725,0,0,0-.394.542A2.347,2.347,0,0,0,6099.954,62.687Zm7.886,4.481Z" fill="#fff"/>
        </g>
      </g>
    </g>
  </g>
		</symbol>

</svg> 