<svg xmlns="http://www.w3.org/2000/svg" width="25.952" height="32.003" viewBox="0 0 25.952 32.003">
  <g id="Сгруппировать_24" data-name="Сгруппировать 24" transform="translate(-5251.39 -52.739)">
    <g id="Сгруппировать_7" data-name="Сгруппировать 7">
      <g id="Сгруппировать_6" data-name="Сгруппировать 6">
        <g id="Сгруппировать_5" data-name="Сгруппировать 5">
          <g id="Сгруппировать_4" data-name="Сгруппировать 4">
            <path id="Контур_81" data-name="Контур 81" d="M5255.745,84.742a4.354,4.354,0,1,1,4.354-4.355A4.36,4.36,0,0,1,5255.745,84.742Zm0-7.712a3.357,3.357,0,1,0,3.357,3.357A3.361,3.361,0,0,0,5255.745,77.03Z" fill="#fff"/>
          </g>
        </g>
      </g>
    </g>
    <g id="Сгруппировать_11" data-name="Сгруппировать 11">
      <g id="Сгруппировать_10" data-name="Сгруппировать 10">
        <g id="Сгруппировать_9" data-name="Сгруппировать 9">
          <g id="Сгруппировать_8" data-name="Сгруппировать 8">
            <path id="Контур_82" data-name="Контур 82" d="M5272.988,82.171a4.354,4.354,0,1,1,4.354-4.354A4.36,4.36,0,0,1,5272.988,82.171Zm0-7.711a3.357,3.357,0,1,0,3.357,3.357A3.361,3.361,0,0,0,5272.988,74.46Z" fill="#fff"/>
          </g>
        </g>
      </g>
    </g>
    <g id="Сгруппировать_15" data-name="Сгруппировать 15">
      <g id="Сгруппировать_14" data-name="Сгруппировать 14">
        <g id="Сгруппировать_13" data-name="Сгруппировать 13">
          <g id="Сгруппировать_12" data-name="Сгруппировать 12">
            <path id="Контур_83" data-name="Контур 83" d="M5259.6,81.037a.5.5,0,0,1-.5-.5v-17.1a.5.5,0,0,1,1,0v17.1A.5.5,0,0,1,5259.6,81.037Z" fill="#fff"/>
          </g>
        </g>
      </g>
    </g>
    <g id="Сгруппировать_19" data-name="Сгруппировать 19">
      <g id="Сгруппировать_18" data-name="Сгруппировать 18">
        <g id="Сгруппировать_17" data-name="Сгруппировать 17">
          <g id="Сгруппировать_16" data-name="Сгруппировать 16">
            <path id="Контур_84" data-name="Контур 84" d="M5276.843,78.164a.5.5,0,0,1-.5-.5V59.416a.5.5,0,1,1,1,0V77.665A.5.5,0,0,1,5276.843,78.164Z" fill="#fff"/>
          </g>
        </g>
      </g>
    </g>
    <g id="Сгруппировать_23" data-name="Сгруппировать 23">
      <g id="Сгруппировать_22" data-name="Сгруппировать 22">
        <g id="Сгруппировать_21" data-name="Сгруппировать 21">
          <g id="Сгруппировать_20" data-name="Сгруппировать 20">
            <path id="Контур_85" data-name="Контур 85" d="M5259.6,63.938a.5.5,0,0,1-.5-.5V57.261a.5.5,0,0,1,.385-.486l17.243-4.023a.5.5,0,0,1,.612.485v6.179a.5.5,0,0,1-.385.486l-17.243,4.023A.488.488,0,0,1,5259.6,63.938Zm.5-6.282v5.155l16.246-3.791V53.866Z" fill="#fff"/>
          </g>
        </g>
      </g>
    </g>
  </g>
</svg>
