<svg xmlns="http://www.w3.org/2000/svg" width="32.09" height="31.994" viewBox="0 0 32.09 31.994">
  <g id="Сгруппировать_34" data-name="Сгруппировать 34" transform="translate(-5462.825 -54.527)">
    <g id="Сгруппировать_29" data-name="Сгруппировать 29">
      <path id="Контур_166" data-name="Контур 166" d="M5489.9,77.587a.5.5,0,0,1-.5-.5V66.057a10.533,10.533,0,0,0-21.066,0V77.089a.5.5,0,0,1-1,0V66.057a11.53,11.53,0,0,1,23.06,0V77.089A.5.5,0,0,1,5489.9,77.587Z" fill="#fff"/>
    </g>
    <g id="Сгруппировать_30" data-name="Сгруппировать 30">
      <path id="Контур_167" data-name="Контур 167" d="M5467.839,77.587h-2.6a2.413,2.413,0,0,1-2.411-2.41V70.482a2.414,2.414,0,0,1,2.411-2.411h2.6a.5.5,0,0,1,.5.5v8.519A.5.5,0,0,1,5467.839,77.587Zm-2.6-8.518a1.414,1.414,0,0,0-1.413,1.413v4.695a1.415,1.415,0,0,0,1.413,1.413h2.1V69.069Z" fill="#fff"/>
    </g>
    <g id="Сгруппировать_31" data-name="Сгруппировать 31">
      <path id="Контур_168" data-name="Контур 168" d="M5492.5,77.587h-2.6a.5.5,0,0,1-.5-.5V68.57a.5.5,0,0,1,.5-.5h2.6a2.414,2.414,0,0,1,2.411,2.411v4.695A2.413,2.413,0,0,1,5492.5,77.587Zm-2.1-1h2.1a1.415,1.415,0,0,0,1.413-1.413V70.482a1.414,1.414,0,0,0-1.413-1.413h-2.1Z" fill="#fff"/>
    </g>
    <g id="Сгруппировать_32" data-name="Сгруппировать 32">
      <path id="Контур_169" data-name="Контур 169" d="M5477.244,86.521a2.161,2.161,0,1,1,2.161-2.161A2.163,2.163,0,0,1,5477.244,86.521Zm0-3.324a1.163,1.163,0,1,0,1.163,1.163A1.165,1.165,0,0,0,5477.244,83.2Z" fill="#fff"/>
    </g>
    <g id="Сгруппировать_33" data-name="Сгруппировать 33">
      <path id="Контур_170" data-name="Контур 170" d="M5475.582,84.859h-.472a7.779,7.779,0,0,1-7.77-7.77.5.5,0,1,1,1,0,6.78,6.78,0,0,0,6.773,6.772h.472a.5.5,0,0,1,0,1Z" fill="#fff"/>
    </g>
  </g>
</svg>
