<svg xmlns="http://www.w3.org/2000/svg" width="28.273" height="28.256" viewBox="0 0 28.273 28.256">
  <g id="Сгруппировать_100" data-name="Сгруппировать 100" transform="translate(-6098.924 -56.396)">
    <g id="Сгруппировать_99" data-name="Сгруппировать 99">
      <g id="Сгруппировать_98" data-name="Сгруппировать 98">
        <g id="Сгруппировать_97" data-name="Сгруппировать 97">
          <path id="Контур_429" data-name="Контур 429" d="M6120.391,84.652a13.7,13.7,0,0,1-1.851-.193,14.062,14.062,0,0,1-3.119-.958,25.747,25.747,0,0,1-4.11-2.251,30.681,30.681,0,0,1-4.875-4.109,32.348,32.348,0,0,1-3.4-3.868,27.984,27.984,0,0,1-2.176-3.427,18.834,18.834,0,0,1-1.245-2.879,15.338,15.338,0,0,1-.566-2.242,7.561,7.561,0,0,1-.122-1.534c.018-.322.028-.506.029-.552a.546.546,0,0,1,0-.069,3.278,3.278,0,0,1,.305-.968,2.652,2.652,0,0,1,.6-.833l3.822-3.822a1.76,1.76,0,0,1,1.277-.551,1.556,1.556,0,0,1,.964.319,2.436,2.436,0,0,1,.611.664.208.208,0,0,1,.02.035l3.091,5.861a1.891,1.891,0,0,1,.191,1.346,2.3,2.3,0,0,1-.627,1.173l-1.388,1.389-.007.02c-.005.015-.009.028-.012.038a5,5,0,0,0,.458,1.177,12.368,12.368,0,0,0,1.03,1.626,18.2,18.2,0,0,0,1.994,2.23,18.756,18.756,0,0,0,2.255,2.019,12.967,12.967,0,0,0,1.623,1.042,3.961,3.961,0,0,0,.91.374l.267.053.026-.008.019-.007,1.616-1.646.026-.024a2.265,2.265,0,0,1,1.543-.586,2.088,2.088,0,0,1,.952.2.508.508,0,0,1,.11.045l5.573,3.292a1.944,1.944,0,0,1,.958,1.284l.005.033a1.825,1.825,0,0,1-.545,1.572l-3.842,3.813a2.646,2.646,0,0,1-.814.586,3.325,3.325,0,0,1-.969.3.545.545,0,0,1-.07.005l-.124.012C6120.7,84.645,6120.563,84.652,6120.391,84.652Zm-20.437-21.965c0,.085-.013.271-.029.559a6.678,6.678,0,0,0,.111,1.322,14.373,14.373,0,0,0,.53,2.093,17.872,17.872,0,0,0,1.18,2.722,26.793,26.793,0,0,0,2.1,3.3,31.307,31.307,0,0,0,3.3,3.75,29.731,29.731,0,0,0,4.716,3.98,24.789,24.789,0,0,0,3.946,2.165,13.117,13.117,0,0,0,2.888.893,12.983,12.983,0,0,0,1.7.181c.135,0,.247,0,.331-.012s.125-.012.163-.014a2.312,2.312,0,0,0,.66-.213,1.7,1.7,0,0,0,.527-.376l3.858-3.831a.824.824,0,0,0,.263-.719.938.938,0,0,0-.492-.61l-5.494-3.245a.49.49,0,0,1-.1-.044,1.027,1.027,0,0,0-.523-.1,1.275,1.275,0,0,0-.87.325l-1.633,1.662a.939.939,0,0,1-.383.224.836.836,0,0,1-.447.06l-.36-.072a4.892,4.892,0,0,1-1.167-.463,13.617,13.617,0,0,1-1.757-1.125,19.667,19.667,0,0,1-2.373-2.119,19.182,19.182,0,0,1-2.1-2.351,13.268,13.268,0,0,1-1.111-1.758,5.738,5.738,0,0,1-.564-1.516.6.6,0,0,1-.008-.093,1.174,1.174,0,0,1,.069-.377.94.94,0,0,1,.222-.381l1.414-1.415a1.3,1.3,0,0,0,.356-.674.908.908,0,0,0-.091-.663l-3.087-5.855a1.467,1.467,0,0,0-.357-.384.571.571,0,0,0-.366-.119.778.778,0,0,0-.572.258l-3.84,3.84a1.725,1.725,0,0,0-.394.542A2.347,2.347,0,0,0,6099.954,62.687Zm7.886,4.481Z" fill="#fff"/>
        </g>
      </g>
    </g>
  </g>
</svg>
